<svg xmlns="http://www.w3.org/2000/svg" viewBox="0 0 1039.8 380.8"><path d="M12 12v288.1l63.8 68.7h83.5V308H252l54.7 61h67v-30.3l35.8 30.2h51.9v-29.3l35.9 29.3h83.3v-29.3l35.9 29.3h158.8v-29.3l35.9 29.3h216.5v-67.3l-71.6-74.1V94l-76.4-82H243.6l-31 36.7L168 12H12zm30.4 23.2h115l53.8 43.5v158.4h-97.8v50h-71V35.2zm202.7 0h71v251.9h-71V35.2zm105.2 0h71.4V137h26.5V35.2h71v145.4H479l40.2 39.4v67h-71v-76.4h-26.5V287h-71.4V166.9h40.2l-40.2-39.4V35.2zm202.7 0h168.5v61.5H624v40.2h37.6v43.7H624v45.2h97.5v61.3H553V35.2zm202.7 0h71v190.6h80.7v61.3H755.7V35.2zM113.4 96.7v97.5H140V96.7h-26.6z"/></svg>